Coordinates
version=1
nRows=17
nColumns=36
inDegrees=yes

Units are S.I. units (second, meters, Newtons, ...)
If the header above contains a line with 'inDegrees', this indicates whether rotational values are in degrees (yes) or radians (no).

endheader
time	pelvis_tilt	pelvis_list	pelvis_rotation	pelvis_tx	pelvis_ty	pelvis_tz	hip_flexion_r	hip_adduction_r	hip_rotation_r	knee_angle_r	knee_angle_r_beta	ankle_angle_r	subtalar_angle_r	mtp_angle_r	hip_flexion_l	hip_adduction_l	hip_rotation_l	knee_angle_l	knee_angle_l_beta	ankle_angle_l	subtalar_angle_l	mtp_angle_l	lumbar_extension	lumbar_bending	lumbar_rotation	arm_flex_r	arm_add_r	arm_rot_r	elbow_flex_r	pro_sup_r	arm_flex_l	arm_add_l	arm_rot_l	elbow_flex_l	pro_sup_l
      0.85000000	    -11.92679772	     -1.70778465	     -0.65518087	     -0.80233367	      1.50548860	     -0.57542342	     31.20142473	     -2.72031456	      2.23636293	     58.08261262	      1.01373283	    -21.40613492	    -10.41557259	     -5.12244900	     28.18200656	     -6.88516885	     -3.83756518	     56.30184711	      0.98265261	    -38.79175860	    -17.38895391	     -5.12244900	    -12.62080738	     -2.09851319	      7.45077643	     11.47938018	    -35.31334857	     -4.24132052	    125.26329444	    111.14034758	     44.22805699	    -25.76136804	     30.67016419	    117.02921741	    110.30001415
      0.86000000	    -12.07256086	     -1.61369634	     -0.72315100	     -0.79487210	      1.50768159	     -0.57548788	     32.78261390	     -3.01338019	      2.34647884	     59.37617221	      1.03630970	    -21.95039780	    -12.49030617	     -5.22422434	     29.98275780	     -7.13976847	     -4.05692474	     58.32255850	      1.01792067	    -38.21359376	    -18.75983661	     -5.22422434	    -13.12173917	     -2.12150842	      7.81995140	      8.44556648	    -36.77390370	     -6.38305444	    126.48509884	    110.99181907	     42.99227764	    -26.26258375	     29.88385725	    117.81030836	    110.42323317
      0.87000000	    -12.05769477	     -1.30230115	     -0.96798684	     -0.78727440	      1.50935022	     -0.57607096	     34.16204292	     -3.56542190	      2.57267866	     60.33672452	      1.05307450	    -21.87174532	    -13.79671677	     -5.40453516	     31.39228970	     -7.18649620	     -4.53714924	     59.86900596	      1.04491127	    -36.59493495	    -19.81608110	     -5.40453516	    -13.88299213	     -2.39314037	      8.95976725	      4.01644027	    -38.37038066	     -9.99691192	    128.07208418	    110.70831035	     42.19827878	    -26.21729613	     29.72410607	    118.06082540	    110.49035119
      0.88000000	    -12.03218177	     -1.04358345	     -1.15987085	     -0.77973714	      1.51027852	     -0.57635407	     35.39472507	     -4.03671991	      2.77983543	     60.86119131	      1.06222817	    -21.18959488	    -14.52714761	     -5.42063560	     32.69843737	     -7.28524471	     -4.95673005	     60.94030750	      1.06360901	    -35.36050048	    -20.88419652	     -5.42063560	    -14.64795804	     -2.52718698	      8.82761563	      1.53628423	    -39.83475131	    -11.16827870	    128.55779392	    110.67109538	     40.20169450	    -27.14079064	     28.24452431	    119.31204304	    110.50732890
      0.89000000	    -12.68787050	     -1.29577881	     -1.10979465	     -0.77259001	      1.50912876	     -0.57546176	     37.14453607	     -3.93341959	      2.69526083	     60.91659336	      1.06319512	    -20.63024621	    -14.98719330	     -5.61996779	     34.89520939	     -7.96488074	     -4.92729898	     61.84649804	      1.07942502	    -34.21229196	    -20.89888254	     -5.61996779	    -14.74585119	     -2.29524536	     10.36011288	     -4.65461186	    -40.53408404	    -16.52204398	    130.29936001	    110.44336027	     39.53270157	    -26.52438203	     28.12449922	    118.91281933	    110.58180831
      0.90000000	    -13.23048852	     -1.57222740	     -0.96535346	     -0.76514359	      1.50752202	     -0.57486962	     38.56798391	     -3.90780290	      2.47583715	     60.43820914	      1.05484574	    -20.03130109	    -14.99706949	     -5.67040548	     36.77386476	     -8.53408961	     -4.78183238	     62.11120259	      1.08404499	    -34.07522390	    -21.12806866	     -5.67040548	    -14.90766940	     -1.87740586	     10.23703634	     -8.11406148	    -41.33044509	    -18.47103927	    130.68757547	    110.39805314	     37.25533471	    -27.19129904	     26.38430876	    119.77675173	    110.55334468
      0.91000000	    -13.34633138	     -1.51738097	     -0.92335731	     -0.75701197	      1.50611029	     -0.57504286	     39.37139955	     -4.27313219	      2.32418309	     59.42977196	      1.03724519	    -19.48707275	    -14.96711317	     -5.68795193	     37.76909152	     -8.70472221	     -4.93203258	     61.54630979	      1.07418575	    -34.24562945	    -20.93594934	     -5.68795193	    -15.62414836	     -1.73602356	      9.91684222	    -11.35910880	    -42.12922620	    -20.14791881	    130.94705930	    110.37601096	     34.60138243	    -28.16069280	     24.51155033	    120.96285956	    110.51459009
      0.92000000	    -13.45450983	     -1.45271402	     -0.94149019	     -0.74855221	      1.50405402	     -0.57514000	     39.99322920	     -4.59978428	      2.20193589	     57.95342007	      1.01147799	    -18.95706368	    -14.55640965	     -5.70755937	     38.52824442	     -8.90937035	     -5.23061770	     60.43587750	      1.05480505	    -34.56875409	    -20.38321052	     -5.70755937	    -16.30314875	     -1.60943525	      9.70289980	    -14.85603698	    -42.78983896	    -21.87786638	    131.01392739	    110.28071987	     31.74383932	    -28.96954258	     22.49729345	    121.91908782	    110.29619701
      0.93000000	    -13.71421424	     -1.44252631	     -1.00759686	     -0.74007471	      1.50069834	     -0.57474602	     40.66184646	     -4.78756400	      2.15496880	     56.20913920	      0.98103455	    -17.34889289	    -12.80785869	     -5.83896761	     39.32988082	     -9.23566091	     -5.61336970	     58.98983066	      1.02956677	    -34.69860749	    -19.88642991	     -5.83896761	    -16.84775784	     -1.48379578	     10.79374979	    -20.86139834	    -42.35839001	    -26.44785895	    131.81048809	    110.95032308	     30.11813185	    -29.04561447	     21.95070649	    121.76831097	    109.81762968
      0.94000000	    -14.04877494	     -1.36135027	     -1.19812100	     -0.73142656	      1.49645841	     -0.57417957	     41.32350143	     -4.91942019	      2.17511452	     54.11453181	      0.94447675	    -17.12905137	    -12.45073087	     -5.85940317	     39.99123422	     -9.55753389	     -6.18873466	     57.09737076	      0.99653711	    -34.70917922	    -19.41427439	     -5.85940317	    -17.22511655	     -1.47634476	     10.67268802	    -24.46551428	    -42.39758609	    -28.10808226	    131.46718142	    110.79636063	     26.87779567	    -29.96748306	     19.83297618	    122.75405666	    109.61385387
      0.95000000	    -14.45237326	     -1.35584763	     -1.37273992	     -0.72251095	      1.49118441	     -0.57377348	     41.91031386	     -5.01909317	      2.11115829	     51.79220208	      0.90394445	    -16.25557524	    -11.17984871	     -5.90377619	     40.59775349	     -9.93721644	     -6.80520821	     54.92725353	      0.95866142	    -34.28374254	    -18.93683254	     -5.90377619	    -17.51757115	     -1.34024231	     10.76424613	    -28.48596134	    -42.01712210	    -30.22407977	    131.19926183	    110.67230506	     23.61352764	    -30.60109746	     17.77019900	    123.47237552	    109.40024984
      0.96000000	    -14.83882908	     -1.20181577	     -1.64797964	     -0.71335127	      1.48511723	     -0.57324157	     42.40732755	     -5.13608749	      2.28327223	     49.27097387	      0.85994072	    -15.86854932	    -10.17780668	     -5.92302095	     40.95731393	    -10.21076524	     -7.60983859	     52.37009266	      0.91403055	    -33.90888648	    -18.41099264	     -5.92302095	    -17.80018138	     -1.42624788	     10.79348977	    -32.12612291	    -41.46193396	    -31.88289441	    130.62075487	    110.44083535	     20.22411623	    -31.34073940	     15.73068835	    124.27044532	    109.23519798
      0.97000000	    -15.13869908	     -1.20973334	     -1.80465998	     -0.70383929	      1.47808964	     -0.57289051	     42.64922975	     -5.19711036	      2.25905587	     46.61831558	      0.81364310	    -14.74716957	     -8.42889876	     -5.96476628	     41.18023140	    -10.51314676	     -8.21837884	     49.70382493	      0.86749540	    -32.93979823	    -17.78920307	     -5.96476628	    -18.16346721	     -1.26562076	     10.73163534	    -35.77190193	    -40.79316563	    -33.37303701	    130.19132872	    110.24590876	     16.60996433	    -31.97020843	     13.44782483	    124.93221248	    109.12592855
      0.98000000	    -15.37053039	     -1.08503445	     -1.95246814	     -0.69413860	      1.47023787	     -0.57255902	     42.77726193	     -5.35856828	      2.28176733	     43.88634196	      0.76596116	    -14.48326464	     -7.36656653	     -5.98968155	     41.17828270	    -10.65362713	     -8.95980077	     46.74126244	      0.81578893	    -32.36345043	    -17.13701907	     -5.98968155	    -18.55480244	     -1.27216170	     10.62959312	    -39.20157468	    -39.93747597	    -34.57040577	    129.55949423	    109.96704130	     13.01643231	    -32.61299952	     11.36759095	    125.48259558	    108.90504466
      0.99000000	    -15.57196004	     -1.05350905	     -1.96722955	     -0.68401679	      1.46146439	     -0.57252576	     42.73738133	     -5.58157685	      2.07154164	     41.10859861	      0.71748040	    -13.49848736	     -5.50977273	     -6.16659374	     41.09037335	    -10.75348457	     -9.56174818	     43.69957975	      0.76270155	    -31.15319046	    -15.90461439	     -6.16659374	    -18.97164827	     -1.16290077	      8.65635414	    -39.98390977	    -40.69753789	    -32.87588840	    128.26962971	    110.25800928	      6.70612220	    -33.46885940	      6.52361762	    127.26567620	    109.46490777
      1.00000000	    -15.77121134	     -1.01481380	     -2.02420643	     -0.67405006	      1.45145897	     -0.57229866	     42.65991898	     -5.68999723	      2.07204106	     38.23254766	      0.66728384	    -13.45201688	     -4.65865292	     -6.17632477	     40.97710552	    -10.83007523	    -10.15152106	     40.59053713	      0.70843852	    -30.82285266	    -15.17840350	     -6.17632477	    -19.31209000	     -1.07678878	      8.56409276	    -43.34921904	    -39.70492183	    -33.92478263	    127.54347572	    110.18342880	      3.10852926	    -33.92251933	      4.88953703	    127.56493541	    109.42950270
      1.01000000	    -15.87239638	     -1.06474436	     -2.11855679	     -0.66341393	      1.44033668	     -0.57164179	     42.42561656	     -5.74166475	      1.83426894	     35.45614874	      0.61882654	    -12.77901485	     -3.05298832	     -6.31016424	     40.75612420	    -11.14553724	    -10.98943161	     37.70563406	      0.65808746	    -29.49102014	    -13.28625364	     -6.31016424	    -19.82719493	     -1.07257600	      5.93699556	    -43.07073434	    -41.04892682	    -31.12564351	    126.07680827	    110.47947067	     -4.79569039	    -34.06825831	     -1.33698776	    129.92113804	    109.79487402
